<svg xmlns="http://www.w3.org/2000/svg" viewBox="0 0 750 500"><defs><style>.cls-1{fill:#fff;}.cls-2{font-size:36px;}.cls-2,.cls-20,.cls-54{font-family:HiraKakuPro-W6-83pv-RKSJ-H, Hiragino Kaku Gothic Pro;}.cls-3{letter-spacing:-0.01em;}.cls-4{letter-spacing:-0.01em;}.cls-5{letter-spacing:0em;}.cls-6{letter-spacing:-0.02em;}.cls-7{letter-spacing:-0.1em;}.cls-8{letter-spacing:0.03em;}.cls-9{letter-spacing:-0.02em;}.cls-10{letter-spacing:0em;}.cls-11{letter-spacing:0.05em;}.cls-12{letter-spacing:-0.02em;}.cls-13{letter-spacing:-0.01em;}.cls-14,.cls-19{fill:none;stroke:#474746;stroke-linejoin:round;}.cls-14{stroke-width:2px;}.cls-15{fill:#a75117;}.cls-16{fill:#f0861f;}.cls-17{fill:#a65017;}.cls-18{fill:#f08620;}.cls-20,.cls-40{font-size:24px;}.cls-21{letter-spacing:-0.11em;}.cls-22{letter-spacing:-0.07em;}.cls-23{letter-spacing:-0.09em;}.cls-24{letter-spacing:-0.04em;}.cls-25{letter-spacing:-0.14em;}.cls-26{letter-spacing:-0.18em;}.cls-27{letter-spacing:-0.08em;}.cls-28{letter-spacing:-0.05em;}.cls-29{letter-spacing:-0.11em;}.cls-30{letter-spacing:-0.11em;}.cls-31{letter-spacing:-0.13em;}.cls-32{letter-spacing:-0.11em;}.cls-33,.cls-54{font-size:21px;}.cls-33,.cls-40{font-family:HiraKakuPro-W3-83pv-RKSJ-H, Hiragino Kaku Gothic Pro;}.cls-34{letter-spacing:-0.1em;}.cls-35{letter-spacing:-0.02em;}.cls-36{letter-spacing:-0.02em;}.cls-37{letter-spacing:-0.02em;}.cls-38{letter-spacing:-0.02em;}.cls-39{letter-spacing:-0.1em;}.cls-41{letter-spacing:-0.02em;}.cls-42{letter-spacing:0em;}.cls-43{letter-spacing:-0.01em;}.cls-44{letter-spacing:0.02em;}.cls-45{letter-spacing:0.01em;}.cls-46{letter-spacing:0em;}.cls-47{letter-spacing:0em;}.cls-48{letter-spacing:-0.01em;}.cls-49{letter-spacing:0em;}.cls-50{letter-spacing:0.03em;}.cls-51{letter-spacing:-0.04em;}.cls-52{letter-spacing:0em;}.cls-53{letter-spacing:0em;}.cls-55{letter-spacing:-0.04em;}.cls-56{letter-spacing:-0.05em;}.cls-57{letter-spacing:-0.14em;}.cls-58{letter-spacing:-0.18em;}.cls-59{letter-spacing:-0.4em;}.cls-60{letter-spacing:-0.02em;}.cls-61{letter-spacing:-0.06em;}.cls-62{letter-spacing:-0.15em;}.cls-63{letter-spacing:-0.1em;}.cls-64{letter-spacing:-0.5em;}.cls-65{letter-spacing:-0.01em;}.cls-66{letter-spacing:-0.01em;}.cls-67{letter-spacing:-0.01em;}.cls-68{letter-spacing:-0.01em;}.cls-69{letter-spacing:-0.01em;}.cls-70{letter-spacing:0.02em;}.cls-71{letter-spacing:-0.01em;}.cls-72{letter-spacing:0.01em;}.cls-73{letter-spacing:-0.09em;}.cls-74{letter-spacing:-0.1em;}.cls-75{letter-spacing:-0.02em;}.cls-76{letter-spacing:-0.02em;}.cls-77{letter-spacing:-0.02em;}.cls-78{letter-spacing:-0.11em;}.cls-79{letter-spacing:-0.1em;}.cls-80{letter-spacing:-0.02em;}.cls-81{letter-spacing:-0.04em;}</style></defs><title>15-1</title><g id="背景色"><rect class="cls-1" width="750" height="500"/></g><g id="レイヤー_1" data-name="レイヤー 1"><text class="cls-2" transform="translate(57.12 70.06)"><tspan class="cls-3">今</tspan><tspan class="cls-4" x="35.57" y="0">回</tspan><tspan class="cls-5" x="71.21" y="0">構</tspan><tspan class="cls-6" x="107.07" y="0">築</tspan><tspan class="cls-7" x="142.37" y="0">す</tspan><tspan class="cls-8" x="174.61" y="0">る</tspan><tspan class="cls-9" x="211.8" y="0">V</tspan><tspan class="cls-10" x="239.36" y="0">P</tspan><tspan class="cls-11" x="264.79" y="0">C</tspan><tspan class="cls-12" x="295.28" y="0">の</tspan><tspan class="cls-13" x="330.68" y="0">構</tspan><tspan x="366.34" y="0">成</tspan></text><rect class="cls-14" x="46.28" y="155.6" width="657.44" height="260.86" rx="17.79"/><path class="cls-15" d="M165.22,148.83v4.37c0,8-8.75,16.14-19.54,16.14H88.21c-10.76,0-19.51-8.12-19.51-16.14v-4.37Z"/><path class="cls-16" d="M105.85,106.22a24.69,24.69,0,0,1,22.5,14.48,12.52,12.52,0,0,1,19.57,9.84c9.72.81,17.3,10.19,17.3,17.64v1.62c0,8-8.75,16.15-19.54,16.15H88.21c-10.76,0-19.51-8.13-19.51-16.15v-1.62c0-6.18,5.19-14.67,12.5-16.78,0-.22,0-.46,0-.7a24.57,24.57,0,0,1,24.68-24.48Z"/><polygon class="cls-1" points="92.09 134.87 95.92 134.87 99.74 152.89 99.8 152.89 103.85 134.87 107.68 134.87 101.99 157.45 97.4 157.45 92.09 134.87 92.09 134.87"/><path class="cls-1" d="M113.59,145.4h2.56c1.93,0,3.61-1,3.61-3.89,0-2.44-1-3.92-3.86-3.92h-2.31v7.81ZM110,134.87h7.14c4.34,0,6.23,2.72,6.23,6.58,0,4-2.37,6.67-6.6,6.67h-3.17v9.33H110V134.87Z"/><path class="cls-1" d="M140.31,149.35v.48c0,4.08-1.64,8.06-7,8.06-5.69,0-7.46-3.67-7.46-11.73s1.77-11.73,7.5-11.73c6.41,0,6.79,4.74,6.79,7.08v.41h-3.6v-.38c0-2.09-.63-4.49-3.23-4.39s-3.85,1.64-3.85,8.91,1.2,9.11,3.85,9.11c3,0,3.36-3.35,3.36-5.44v-.38Z"/><path class="cls-17" d="M248.49,154.66a23.85,23.85,0,1,1-23.85-23.85,23.85,23.85,0,0,1,23.85,23.85Z"/><polygon class="cls-17" points="248.49 154.66 200.79 154.66 200.79 152.7 248.49 152.7 248.49 154.66 248.49 154.66"/><path class="cls-18" d="M248.49,152.7a23.85,23.85,0,1,1-23.85-23.85,23.85,23.85,0,0,1,23.85,23.85Z"/><path class="cls-1" d="M206.66,155.07v-.57a7.85,7.85,0,0,1,4.42-6.57,9.66,9.66,0,0,1,18-4.41,5.41,5.41,0,0,1,2.11-.43,5.31,5.31,0,0,1,5.26,4.36,7.84,7.84,0,0,1,6.19,7.05v.57c0,3.53-3.65,6.63-7.82,6.63H214.48c-4.16,0-7.82-3.1-7.82-6.63Z"/><path class="cls-18" d="M229.54,146l-1.52,1-.75-1.68a7.21,7.21,0,0,0-6.56-4.22,7.19,7.19,0,0,0-7.18,7.19l0,1.34-1.13.32a5.3,5.3,0,0,0-3.31,4.47v.57c0,1.94,2.34,4.19,5.36,4.19H234.8c3,0,5.36-2.25,5.36-4.19v-.57c0-1.95-2.17-4.51-4.7-4.73l-1.36-.11,0-1.36a2.87,2.87,0,0,0-2.88-2.77,2.81,2.81,0,0,0-1.63.51Z"/><rect class="cls-19" x="134.66" y="240.7" width="349.54" height="154.05" rx="10.75"/><text class="cls-20" transform="translate(257.1 183.37)"><tspan class="cls-21">イ</tspan><tspan class="cls-22" x="21.3" y="0">ン</tspan><tspan class="cls-23" x="43.67" y="0">タ</tspan><tspan class="cls-24" x="65.46" y="0">ー</tspan><tspan class="cls-25" x="88.46" y="0">ネ</tspan><tspan class="cls-26" x="109.1" y="0">ッ</tspan><tspan class="cls-27" x="128.83" y="0">ト</tspan><tspan class="cls-28" x="150.81" y="0">ゲ</tspan><tspan class="cls-29" x="173.49" y="0">ー</tspan><tspan class="cls-30" x="194.94" y="0">ト</tspan><tspan class="cls-31" x="216.38" y="0">ウ</tspan><tspan class="cls-32" x="237.29" y="0">ェ</tspan><tspan x="258.74" y="0">イ</tspan></text><text class="cls-33" transform="translate(559.51 183.37)"><tspan class="cls-34">1</tspan><tspan class="cls-35" x="11.74" y="0">0</tspan><tspan class="cls-36" x="25.14" y="0">.</tspan><tspan class="cls-35" x="29.74" y="0">0</tspan><tspan class="cls-36" x="43.14" y="0">.</tspan><tspan class="cls-37" x="47.74" y="0">0</tspan><tspan class="cls-38" x="61.14" y="0">.</tspan><tspan x="65.74" y="0">0 / </tspan><tspan class="cls-39" x="103.48" y="0">1</tspan><tspan x="115.09" y="0">6</tspan></text><text class="cls-40" transform="translate(259.1 210)"><tspan class="cls-41">t</tspan><tspan class="cls-42" x="8.93" y="0">e</tspan><tspan class="cls-43" x="22.95" y="0">c</tspan><tspan class="cls-44" x="36.49" y="0">h</tspan><tspan class="cls-45" x="51.69" y="0">-</tspan><tspan class="cls-46" x="60.64" y="0">b</tspan><tspan class="cls-47" x="76.11" y="0">o</tspan><tspan class="cls-48" x="91.01" y="0">o</tspan><tspan class="cls-49" x="105.76" y="0">s</tspan><tspan class="cls-50" x="118.62" y="0">t</tspan><tspan class="cls-51" x="128.71" y="0">_</tspan><tspan class="cls-52" x="139.67" y="0">v</tspan><tspan class="cls-53" x="152.74" y="0">p</tspan><tspan x="168.21" y="0">c</tspan></text><text class="cls-54" transform="translate(148.52 268.73)"><tspan class="cls-55">サ</tspan><tspan class="cls-56" x="20.15" y="0">ブ</tspan><tspan class="cls-57" x="40.11" y="0">ネ</tspan><tspan class="cls-58" x="58.2" y="0">ッ</tspan><tspan class="cls-59" x="75.51" y="0">ト</tspan><tspan x="88.11" y="0">（</tspan><tspan class="cls-60" x="109.11" y="0">パ</tspan><tspan class="cls-61" x="129.66" y="0">ブ</tspan><tspan class="cls-62" x="149.32" y="0">リ</tspan><tspan class="cls-63" x="167.26" y="0">ッ</tspan><tspan x="186.19" y="0">ク</tspan><tspan class="cls-64" x="207.19" y="0">）</tspan></text><text class="cls-40" transform="translate(148.52 293.61)"><tspan class="cls-65">s</tspan><tspan class="cls-66" x="12.64" y="0">u</tspan><tspan class="cls-67" x="27.3" y="0">b</tspan><tspan class="cls-68" x="42.67" y="0">n</tspan><tspan class="cls-69" x="57.31" y="0">e</tspan><tspan class="cls-50" x="71.15" y="0">t</tspan><tspan class="cls-70" x="81.23" y="0">_</tspan><tspan class="cls-71" x="93.85" y="0">p</tspan><tspan class="cls-66" x="109.19" y="0">u</tspan><tspan class="cls-72" x="123.86" y="0">b</tspan><tspan class="cls-73" x="139.48" y="0">_</tspan><tspan x="149.36" y="0">1</tspan></text><text class="cls-40" transform="translate(325.7 379.63)"><tspan class="cls-74">1</tspan><tspan class="cls-75" x="13.38" y="0">0</tspan><tspan class="cls-76" x="28.67" y="0">.</tspan><tspan class="cls-77" x="33.9" y="0">0</tspan><tspan class="cls-78" x="49.18" y="0">.</tspan><tspan class="cls-79" x="52.29" y="0">1</tspan><tspan class="cls-80" x="65.72" y="0">.</tspan><tspan x="70.95" y="0">0 / </tspan><tspan class="cls-81" x="114.08" y="0">2</tspan><tspan x="128.78" y="0">4</tspan></text></g></svg>